<?xml version="1.0"?>
<svg xmlns="http://www.w3.org/2000/svg" id="color" enable-background="new 0 0 24 24" height="512px" viewBox="0 0 24 24" width="512px" class="hovered-paths"><g transform="matrix(1.03009 0 0 1.03009 -0.361139 -0.361139)"><path d="m15.854 23.146c-1.313-1.313-1.353-2.586-1.354-2.649-.002-.275-.225-.497-.5-.497h-4.02c-.276 0-.5.227-.5.503 0 .054-.018 1.328-1.333 2.644-.143.143-.186.358-.108.545.076.186.259.308.461.308h7c.202 0 .385-.122.462-.309s.034-.401-.108-.545z" fill="#90a4ae" data-original="#90A4AE"/><path d="m22.25 4h-20.5c-.965 0-1.75.785-1.75 1.75v13.5c0 .965.785 1.75 1.75 1.75h20.5c.965 0 1.75-.785 1.75-1.75v-13.5c0-.965-.785-1.75-1.75-1.75z" fill="#607d8b" data-original="#607D8B" class="hovered-path"/><path d="m22 17h-20v-11h20z" fill="#fafafa" data-original="#FAFAFA"/><path d="m12 21h-2.591c-.118.501-.431 1.315-1.262 2.146-.143.143-.186.358-.108.545.076.187.259.309.461.309h3.5z" fill="#7d8f97" data-original="#7D8F97"/><path d="m12 4h-10.25c-.965 0-1.75.785-1.75 1.75v13.5c0 .965.785 1.75 1.75 1.75h7.659 2.591v-4h-10v-11h10z" fill="#546d79" data-original="#546D79"/><path d="m12 6h-10v11h10z" fill="#dadada" data-original="#DADADA"/><path d="m16.25 0h-2.5c-.414 0-.75.336-.75.75v8.5c0 .414.336.75.75.75h2.5c.414 0 .75-.336.75-.75v-8.5c0-.414-.336-.75-.75-.75z" fill="#2196f3" data-original="#2196F3"/><path d="m10.25 4h-2.5c-.414 0-.75.336-.75.75v4.5c0 .414.336.75.75.75h2.5c.414 0 .75-.336.75-.75v-4.5c0-.414-.336-.75-.75-.75z" fill="#64b5f6" data-original="#64B5F6"/><path d="m9 4h-1.25c-.414 0-.75.336-.75.75v4.5c0 .414.336.75.75.75h1.25z" fill="#579ed6" data-original="#579ED6"/><path d="m15 0h-1.25c-.414 0-.75.336-.75.75v8.5c0 .414.336.75.75.75h1.25z" fill="#1d83d4" data-original="#1D83D4" class="active-path" style="fill:#1D83D4"/><path d="m17.25 10h-10.5c-.414 0-.75-.336-.75-.75s.336-.75.75-.75h10.5c.414 0 .75.336.75.75s-.336.75-.75.75z" fill="#607d8b" data-original="#607D8B" class="hovered-path"/><path d="m18 9.25h-12c0 .414.336.75.75.75h10.5c.414 0 .75-.336.75-.75z" fill="#546d79" data-original="#546D79"/></g> </svg>
