<svg id="Capa_1" enable-background="new 0 0 512 512" height="512" viewBox="0 0 512 512" width="512" xmlns="http://www.w3.org/2000/svg"><g><g><g fill="#5e54ac"><path d="m52 383v69h102v-69c0-28.166-22.833-51-51-51-28.167 0-51 22.833-51 51z"/><path d="m154 383v69h102v-69c0-28.166-22.833-51-51-51-28.167 0-51 22.833-51 51z"/><path d="m358 383v69h102v-69c0-28.166-22.833-51-51-51-28.167 0-51 22.833-51 51z"/></g><path d="m460 383c0-28.167-22.833-51-51-51v120h51z" fill="#453d81"/><path d="m256 383v69h102v-69c0-28.166-22.833-51-51-51-28.167 0-51 22.833-51 51z" fill="#5e54ac"/><path d="m358 383c0-28.167-22.833-51-51-51v120h51z" fill="#453d81"/><path d="m256 383c0-28.167-22.833-51-51-51v120h51z" fill="#453d81"/><path d="m154 383c0-28.167-22.833-51-51-51v120h51z" fill="#453d81"/></g><g fill="#5e54ac"><path d="m103 443v69h102v-69c0-28.166-22.833-51-51-51-28.167 0-51 22.833-51 51z"/><path d="m307 443v69h102v-69c0-28.166-22.833-51-51-51-28.167 0-51 22.833-51 51z"/><path d="m409 443v69h87c8.284 0 15-6.716 15-15v-54c0-28.166-22.833-51-51-51-28.167 0-51 22.833-51 51z"/><path d="m205 443v69h102v-69c0-28.166-22.833-51-51-51-28.167 0-51 22.833-51 51z"/><path d="m1 443v54c0 8.284 6.716 15 15 15h87v-69c0-28.166-22.833-51-51-51-28.167 0-51 22.833-51 51z"/></g><g fill="#453d81"><path d="m103 443c0-28.167-22.833-51-51-51v120h51z"/><path d="m205 443c0-28.167-22.833-51-51-51v120h51z"/><path d="m307 443c0-28.167-22.833-51-51-51v120h51z"/><path d="m409 443c0-28.167-22.833-51-51-51v120h51z"/><path d="m511 443c0-28.166-22.833-51-51-51v120h36c8.284 0 15-6.716 15-15z"/></g><g><path d="m16 225 115 75h250l115-75z" fill="#bc8173"/><g><path d="m496 225h-240v75h125z" fill="#9d5e4a"/></g><path d="m281 0h-50l-230 240h510z" fill="#ffe67a"/><g><path d="m281 0h-25v240h255z" fill="#ffc336"/></g><g><g><path d="m411 54.29v-39.29c0-8.284-6.716-15-15-15h-115v25c0 91.127 73.873 165 165 165h15z" fill="#ff5e82"/></g><path d="m496 0h-100v54.29c0 45.275 17.985 88.696 50 120.71l12.577 12.577v14.144h37.423c8.284 0 15-6.716 15-15v-171.721c0-8.284-6.716-15-15-15z" fill="#b7457d"/></g><path d="m413.2 186.721c-20.727 25.957-32.2 58.259-32.2 92.311v20.968h115c8.284 0 15-6.716 15-15v-98.279z" fill="#b7457d"/><g><path d="m101 54.29v-39.29c0-8.284 6.716-15 15-15h115v25c0 91.127-73.873 165-165 165h-15z" fill="#ff5e82"/></g><path d="m16 0h100v54.29c0 45.275-17.985 88.696-50 120.71l-12.577 12.577v14.144h-37.423c-8.284 0-15-6.716-15-15v-171.721c0-8.284 6.716-15 15-15z" fill="#ff7ebc"/><path d="m98.8 186.721c20.727 25.957 32.2 58.259 32.2 92.311v20.968h-115c-8.284 0-15-6.716-15-15v-98.279z" fill="#ff5e82"/></g></g></svg>