<svg id="Capa_1" enable-background="new 0 0 512 512" height="512" viewBox="0 0 512 512" width="512" xmlns="http://www.w3.org/2000/svg"><g><path d="m124.878 439.154h-114.576c-5.69 0-10.302-4.612-10.302-10.301v-312.405c0-5.69 4.612-10.302 10.302-10.302h114.576z" fill="#78d0b1"/><path d="m99.902 106.146h24.976v333.008h-24.976z" fill="#66b49d"/><path d="m104.065 106.146h-83.252v-22.999c0-5.69 4.612-10.302 10.302-10.302h62.648c5.69 0 10.302 4.612 10.302 10.302z" fill="#3d4fc3"/><path d="m501.698 439.154h-376.82v-333.008h376.82c5.69 0 10.302 4.612 10.302 10.302v312.405c0 5.689-4.613 10.301-10.302 10.301z" fill="#f6e781"/><path d="m501.698 439.154h-14.674v-333.008h14.674c5.69 0 10.302 4.612 10.302 10.302v312.405c0 5.689-4.613 10.301-10.302 10.301z" fill="#f1cb86"/><circle cx="318.439" cy="272.65" fill="#78d0b1" r="104.065"/><path d="m376.002 185.949c10.968 16.487 17.364 36.277 17.364 57.563 0 57.474-46.592 104.065-104.065 104.065-21.286 0-41.076-6.396-57.563-17.364 18.646 28.028 50.514 46.502 86.701 46.502 57.473 0 104.065-46.591 104.065-104.065 0-36.187-18.474-68.055-46.502-86.701z" fill="#66b49d"/><circle cx="318.439" cy="272.65" fill="#3d4fc3" r="70.764"/><path d="m256.022 239.349c-5.32 9.932-8.347 21.268-8.347 33.301s3.027 23.369 8.347 33.301h124.834c5.32-9.932 8.347-21.268 8.347-33.301s-3.027-23.369-8.347-33.301z" fill="#2b3890"/><circle cx="318.439" cy="272.65" fill="#f4fbff" r="33.301"/><path d="m468.292 139.447h-35.382c-5.747 0-10.406 4.659-10.406 10.407v18.732c0 5.747 4.659 10.407 10.406 10.407h35.382c5.747 0 10.406-4.659 10.406-10.407v-18.732c.001-5.748-4.658-10.407-10.406-10.407z" fill="#f4fbff"/><circle cx="183.154" cy="164.423" fill="#dd5790" r="24.976"/></g></svg>