<svg height="512" viewBox="0 0 64 64" width="512" xmlns="http://www.w3.org/2000/svg"><path d="m40 33h-2v-3h-8.5l-.558.743-1.599-1.201 1.157-1.542h11.5z" fill="#f9bb4b"/><path d="m49 61h-38l1-14h36z" fill="#5a6470"/><g fill="#fff69a"><path d="m20 51h20v6h-20z"/><path d="m15 50h2v2h-2z"/><path d="m14 56h2v2h-2z"/><path d="m43 50h2v2h-2z"/><path d="m44 56h2v2h-2z"/></g><path d="m19 33h22v14h-22z" fill="#f9bb4b"/><path d="m41 37h6v6h-6z" fill="#ffd782"/><path d="m47 29h6a0 0 0 0 1 0 0v10a4 4 0 0 1 -4 4h-2a0 0 0 0 1 0 0v-14a0 0 0 0 1 0 0z" fill="#f9bb4b"/><path d="m24 3-9 22h32v4h6v-7z" fill="#ffd782"/><path d="m16 32h28v2h-28z" fill="#d69f45"/><path d="m28 44h-5a1 1 0 0 1 -1-1v-5h2v4h4z" fill="#f4f4e6"/><path d="m31 5.789h2v14.422h-2z" fill="#f4f4e6" transform="matrix(.555 -.832 .832 .555 3.433 32.415)"/><path d="m40.5 17.197h2v3.606h-2z" fill="#f4f4e6" transform="matrix(.555 -.832 .832 .555 2.671 42.991)"/></svg>