<svg id="Capa_1" enable-background="new 0 0 512 512" height="512" viewBox="0 0 512 512" width="512" xmlns="http://www.w3.org/2000/svg"><g id="XMLID_593_"><g id="XMLID_118_"><g id="XMLID_83_"><path id="XMLID_46_" d="m100.569 497c0 8.284 6.716 15 15 15h96.374c8.284 0 15-6.716 15-15 0-.048 0-.098-.001-.148.059-15.973 13.071-28.95 29.058-28.95s29 12.977 29.059 28.95c0 .05-.001.1-.001.148 0 8.284 6.716 15 15 15h96.374c8.284 0 15-6.716 15-15v-131.711l-155.432-23.289-155.431 23.289z" fill="#ff80a9"/><path id="XMLID_45_" d="m396.431 0h-96.374c-8.284 0-15 6.716-15 15 0 .048 0 .098.001.148-.059 15.973-13.072 28.95-29.059 28.95s-28.999-12.976-29.057-28.95c.001-.05.001-.1.001-.148 0-8.284-6.716-15-15-15h-96.374c-8.284 0-15 6.716-15 15v131.711l155.431 21.289 155.431-21.289v-131.711c0-8.284-6.716-15-15-15z" fill="#ff80a9"/><g id="XMLID_112_" fill="#ff5e92"><path id="XMLID_72_" d="m255.827 467.902c16.004 0 29.031 12.977 29.091 28.95 0 .05-.001.1-.001.148 0 8.284 6.723 15 15.017 15h96.482c8.293 0 15.017-6.716 15.017-15v-131.711l-155.606-23.289z"/><path id="XMLID_68_" d="m396.414 0h-96.482c-8.293 0-15.017 6.716-15.017 15 0 .048 0 .098.001.148-.059 15.973-13.087 28.949-29.091 28.95v123.902l155.605-21.289v-131.711c.001-8.284-6.722-15-15.016-15z"/></g></g></g><path id="XMLID_26_" d="m256 146.711h-155.431v218.578h155.431 155.431v-218.578z" fill="#e5e5e5"/><g id="XMLID_478_"><path id="XMLID_551_" d="m255.827 146.711h155.605v218.577h-155.605z" fill="#d6d6d6"/></g><path id="XMLID_552_" d="m182.834 237.386c1.943-5.067 6.471-8.689 11.841-9.472l31.588-4.608 16.345-30.494c2.611-4.873 7.692-7.914 13.221-7.914 5.528 0 10.608 3.041 13.221 7.914l16.346 30.494 31.588 4.608c5.37.783 9.897 4.405 11.84 9.472s.998 10.788-2.471 14.96l-22.667 27.263 3.505 30.797c.591 5.192-1.563 10.318-5.686 13.53-2.675 2.084-5.929 3.167-9.22 3.167-1.781 0-3.573-.317-5.29-.964l-31.165-11.749-31.167 11.749c-4.891 1.844-10.388 1.009-14.509-2.203-4.123-3.211-6.277-8.337-5.686-13.529l3.505-30.797-22.667-27.263c-3.47-4.174-4.415-9.894-2.472-14.961z" fill="#989eec"/><g id="XMLID_363_"><path id="XMLID_436_" d="m269.046 192.812 16.346 30.494 31.588 4.608c5.37.783 9.897 4.405 11.84 9.472s.998 10.788-2.471 14.96l-22.667 27.263 3.505 30.797c.591 5.192-1.563 10.318-5.686 13.53-2.675 2.084-5.929 3.167-9.22 3.167-1.781 0-3.573-.317-5.29-.964l-31.165-11.749v-129.492c5.528 0 10.608 3.041 13.22 7.914z" fill="#7c83e7"/></g></g></svg>